<svg width="27" height="27" viewBox="0 0 27 27" fill="none" xmlns="http://www.w3.org/2000/svg">
<path d="M14.8278 0.583496C16.281 0.587371 17.0185 0.595121 17.6553 0.613204L17.9059 0.622246C18.1952 0.632579 18.4807 0.645496 18.8255 0.660996C20.1999 0.725579 21.1376 0.94258 21.9604 1.26162C22.8129 1.5897 23.5311 2.03404 24.2492 2.75091C24.906 3.39661 25.4143 4.17767 25.7385 5.03975C26.0576 5.86254 26.2746 6.80029 26.3392 8.17591C26.3547 8.51949 26.3676 8.80495 26.3779 9.09558L26.3857 9.34616C26.405 9.98166 26.4128 10.7192 26.4154 12.1723L26.4167 13.1359V14.828C26.4198 15.7701 26.4099 16.7123 26.387 17.6542L26.3792 17.9047C26.3689 18.1954 26.356 18.4808 26.3405 18.8244C26.2759 20.2 26.0563 21.1365 25.7385 21.9606C25.4152 22.8231 24.9069 23.6044 24.2492 24.2494C23.6034 24.906 22.8223 25.4142 21.9604 25.7387C21.1376 26.0577 20.1999 26.2747 18.8255 26.3393C18.519 26.3538 18.2125 26.3667 17.9059 26.3781L17.6553 26.3858C17.0185 26.4039 16.281 26.413 14.8278 26.4155L13.8642 26.4168H12.1734C11.2309 26.4201 10.2883 26.4102 9.34599 26.3871L9.09541 26.3794C8.78878 26.3678 8.48222 26.3544 8.17574 26.3393C6.80141 26.2747 5.86366 26.0577 5.03958 25.7387C4.17761 25.415 3.39686 24.9067 2.75203 24.2494C2.09463 23.6039 1.58595 22.8228 1.26145 21.9606C0.942409 21.1378 0.725409 20.2 0.660826 18.8244C0.646435 18.5179 0.633518 18.2114 0.622076 17.9047L0.615618 17.6542C0.591815 16.7123 0.58105 15.7702 0.583326 14.828V12.1723C0.579721 11.2302 0.589194 10.288 0.611743 9.34616L0.620784 9.09558C0.631118 8.80495 0.644034 8.51949 0.659534 8.17591C0.724118 6.80029 0.941117 5.86383 1.26016 5.03975C1.58451 4.17679 2.09421 3.39548 2.75333 2.75091C3.39799 2.09407 4.17822 1.58581 5.03958 1.26162C5.86366 0.94258 6.80012 0.725579 8.17574 0.660996C8.51933 0.645496 8.80608 0.632579 9.09541 0.622246L9.34599 0.614496C10.2879 0.591547 11.23 0.581643 12.1722 0.584788L14.8278 0.583496ZM13.5 7.04183C11.7871 7.04183 10.1444 7.72226 8.93326 8.93343C7.72209 10.1446 7.04166 11.7873 7.04166 13.5002C7.04166 15.213 7.72209 16.8557 8.93326 18.0669C10.1444 19.2781 11.7871 19.9585 13.5 19.9585C15.2128 19.9585 16.8556 19.2781 18.0667 18.0669C19.2779 16.8557 19.9583 15.213 19.9583 13.5002C19.9583 11.7873 19.2779 10.1446 18.0667 8.93343C16.8556 7.72226 15.2128 7.04183 13.5 7.04183ZM13.5 9.62516C14.0089 9.62508 14.5128 9.72522 14.9829 9.91988C15.4531 10.1145 15.8803 10.3999 16.2402 10.7597C16.6001 11.1194 16.8856 11.5466 17.0804 12.0167C17.2752 12.4868 17.3756 12.9906 17.3756 13.4995C17.3757 14.0084 17.2756 14.5123 17.0809 14.9825C16.8863 15.4526 16.6009 15.8799 16.2411 16.2397C15.8814 16.5996 15.4542 16.8851 14.9841 17.0799C14.514 17.2748 14.0102 17.3751 13.5013 17.3752C12.4736 17.3752 11.4879 16.9669 10.7612 16.2402C10.0345 15.5135 9.62628 14.5279 9.62628 13.5002C9.62628 12.4724 10.0345 11.4868 10.7612 10.7601C11.4879 10.0334 12.4736 9.62516 13.5013 9.62516M20.2825 5.10433C19.8543 5.10433 19.4436 5.27444 19.1409 5.57723C18.8381 5.88002 18.6679 6.2907 18.6679 6.71891C18.6679 7.14713 18.8381 7.5578 19.1409 7.86059C19.4436 8.16339 19.8543 8.3335 20.2825 8.3335C20.7107 8.3335 21.1214 8.16339 21.4242 7.86059C21.727 7.5578 21.8971 7.14713 21.8971 6.71891C21.8971 6.2907 21.727 5.88002 21.4242 5.57723C21.1214 5.27444 20.7107 5.10433 20.2825 5.10433Z" fill="#EF3E23"/>
</svg>
