<svg width="21" height="17" viewBox="0 0 21 17" fill="none" xmlns="http://www.w3.org/2000/svg">
<path fill-rule="evenodd" clip-rule="evenodd" d="M10.5 0.166504C11.3907 0.166504 12.3042 0.189421 13.1896 0.226921L14.2355 0.276921L15.2365 0.336296L16.174 0.399837L17.0302 0.466504C17.9595 0.537627 18.8338 0.934157 19.4995 1.58634C20.1653 2.23852 20.5797 3.10457 20.6698 4.03213L20.7115 4.47484L20.7896 5.42275C20.8625 6.40504 20.9167 7.47588 20.9167 8.49984C20.9167 9.5238 20.8625 10.5946 20.7896 11.5769L20.7115 12.5248C20.698 12.6769 20.6844 12.8238 20.6698 12.9675C20.5796 13.8953 20.1651 14.7615 19.4992 15.4137C18.8332 16.0659 17.9586 16.4623 17.0292 16.5332L16.175 16.5988L15.2375 16.6634L14.2355 16.7228L13.1896 16.7728C12.2936 16.8117 11.3969 16.8318 10.5 16.8332C9.60319 16.8318 8.70646 16.8117 7.81046 16.7728L6.76462 16.7228L5.76358 16.6634L4.82608 16.5988L3.96983 16.5332C3.04061 16.462 2.16624 16.0655 1.50053 15.4133C0.834826 14.7612 0.420431 13.8951 0.330249 12.9675L0.288582 12.5248L0.210457 11.5769C0.130809 10.5531 0.0884199 9.52673 0.083374 8.49984C0.083374 7.47588 0.137541 6.40504 0.210457 5.42275L0.288582 4.47484C0.302124 4.32275 0.315666 4.17588 0.330249 4.03213C0.420395 3.10473 0.834641 2.23881 1.50014 1.58665C2.16563 0.934495 3.03976 0.537861 3.96879 0.466504L4.824 0.399837L5.7615 0.336296L6.76358 0.276921L7.80942 0.226921C8.70577 0.187997 9.60284 0.167853 10.5 0.166504ZM8.41671 5.9738V11.0259C8.41671 11.5071 8.93754 11.8071 9.35421 11.5675L13.7292 9.0415C13.8244 8.9867 13.9035 8.90778 13.9585 8.81268C14.0135 8.71759 14.0424 8.60968 14.0424 8.49984C14.0424 8.38999 14.0135 8.28208 13.9585 8.18699C13.9035 8.09189 13.8244 8.01297 13.7292 7.95817L9.35421 5.43317C9.25917 5.3783 9.15135 5.34942 9.04161 5.34944C8.93186 5.34945 8.82406 5.37837 8.72903 5.43327C8.63401 5.48817 8.55512 5.56713 8.50029 5.6622C8.44546 5.75726 8.41664 5.86509 8.41671 5.97484V5.9738Z" fill="#EF3E23"/>
</svg>
