<svg width="600" height="601" viewBox="0 0 600 601" fill="none" xmlns="http://www.w3.org/2000/svg">
<g clip-path="url(#clip0_8_11)">
<path fill-rule="evenodd" clip-rule="evenodd" d="M279.036 363.757L350.152 348.565L361.123 279.125L543.245 273.377C541.69 276.611 539.605 279.664 536.988 282.414L293.289 538.512C290.072 541.893 286.341 544.491 282.336 546.331L279.036 363.757ZM390.427 94.1378L535.747 232.423C539.543 236.034 542.349 240.286 544.188 244.846L365.663 250.476L390.427 94.1378ZM98.7912 402.243L250.635 369.818L253.852 546.692C249.945 545.033 246.37 542.682 243.298 539.753L98.7912 402.243ZM306.49 63.0769C319.943 48.9398 342.329 48.3694 356.482 61.8367L365.487 70.4055L325.185 324.923L73.9128 378.569L64.0322 369.167C49.895 355.714 49.3246 333.327 62.7919 319.175L306.49 63.0769Z" fill="#0075FF"/>
</g>
<defs>
<clipPath id="clip0_8_11">
<rect width="424.239" height="424.239" fill="white" transform="translate(0 308.235) rotate(-46.4212)"/>
</clipPath>
</defs>
</svg>
